<svg id="SvgjsSvg1281" width="288" height="288" xmlns="http://www.w3.org/2000/svg" version="1.1" xmlns:xlink="http://www.w3.org/1999/xlink" xmlns:svgjs="http://svgjs.com/svgjs"><defs id="SvgjsDefs1282"></defs><g id="SvgjsG1283"><svg xmlns="http://www.w3.org/2000/svg" xmlns:svgjs="http://svgjs.com/svgjs" xmlns:xlink="http://www.w3.org/1999/xlink" width="288" height="288"><svg xmlns="http://www.w3.org/2000/svg" xmlns:xlink="http://www.w3.org/1999/xlink" width="288" height="288" data-name="Layer 1" viewBox="0 0 824 568.98"><defs><linearGradient id="b" x1="687.86" x2="306.78" y1="-226.62" y2="340.93" gradientUnits="userSpaceOnUse"><stop class="stopColor000000 svgShape" offset=".01" stop-color="#000000"></stop><stop class="stopColor000000 svgShape" offset=".1" stop-opacity=".77" stop-color="#000000"></stop><stop class="stopColor000000 svgShape" offset=".97" stop-opacity="0" stop-color="#000000"></stop></linearGradient><linearGradient id="q" x1="685.87" x2="616.35" y1="165.23" y2="604.93" xlink:href="#a"></linearGradient><linearGradient id="e" x1="691.62" x2="-175.43" y1="269.68" y2="289.49" xlink:href="#b"></linearGradient><linearGradient id="f" x1="-100.22" x2="674.77" y1="384.86" y2="192.57" xlink:href="#b"></linearGradient><linearGradient id="g" x1="333.4" x2="326.41" y1="18.47" y2="277.18" xlink:href="#a"></linearGradient><linearGradient id="c" x1="298.42" x2="231.55" y1="137.61" y2="142.56" gradientUnits="userSpaceOnUse"><stop class="stopColor68e1fd svgShape stopColor68fdeb" offset="0" stop-color="#9568fd"></stop><stop class="stopColorfff svgShape" offset="1" stop-color="#ffffff"></stop></linearGradient><linearGradient id="h" x1="328.71" x2="261.84" y1="137.61" y2="142.56" xlink:href="#c"></linearGradient><linearGradient id="i" x1="359" x2="292.13" y1="137.61" y2="142.56" xlink:href="#c"></linearGradient><linearGradient id="j" x1="389.29" x2="322.42" y1="137.61" y2="142.56" xlink:href="#c"></linearGradient><linearGradient id="k" x1="419.58" x2="352.71" y1="137.61" y2="142.56" xlink:href="#c"></linearGradient><linearGradient id="l" x1="449.87" x2="383" y1="137.61" y2="142.56" xlink:href="#c"></linearGradient><linearGradient id="m" x1="480.16" x2="413.29" y1="137.61" y2="142.56" xlink:href="#c"></linearGradient><linearGradient id="n" x1="510.45" x2="443.58" y1="137.61" y2="142.56" xlink:href="#c"></linearGradient><linearGradient id="o" x1="604.96" x2="604.27" y1="278.59" y2="224.01" xlink:href="#b"></linearGradient><linearGradient id="d" x1="661.08" x2="716.09" y1="133.07" y2="133.07" gradientUnits="userSpaceOnUse"><stop class="stopColorecc4d7 svgShape stopColorad59d4" offset="0" stop-color="#7e59d4"></stop><stop class="stopColorefd4d1 svgShape stopColord8a353" offset=".42" stop-color="#7b53d8"></stop><stop class="stopColorf2eac9 svgShape stopColorf2e2c9" offset="1" stop-color="#d5c9f2"></stop></linearGradient><linearGradient id="p" x1="674.03" x2="676.87" y1="317.96" y2="170.44" xlink:href="#b"></linearGradient><linearGradient id="a" x1="392.81" x2="740.1" y1="242.3" y2="-271.64" gradientUnits="userSpaceOnUse"><stop class="stopColorfff svgShape" offset=".03" stop-color="#ffffff"></stop><stop class="stopColorfff svgShape" offset=".09" stop-color="#ffffff" stop-opacity=".84"></stop><stop class="stopColorfff svgShape" offset=".18" stop-color="#ffffff" stop-opacity=".64"></stop><stop class="stopColorfff svgShape" offset=".28" stop-color="#ffffff" stop-opacity=".47"></stop><stop class="stopColorfff svgShape" offset=".37" stop-color="#ffffff" stop-opacity=".33"></stop><stop class="stopColorfff svgShape" offset=".47" stop-color="#ffffff" stop-opacity=".21"></stop><stop class="stopColorfff svgShape" offset=".58" stop-color="#ffffff" stop-opacity=".12"></stop><stop class="stopColorfff svgShape" offset=".69" stop-color="#ffffff" stop-opacity=".05"></stop><stop class="stopColorfff svgShape" offset=".82" stop-color="#ffffff" stop-opacity=".01"></stop><stop class="stopColorfff svgShape" offset=".98" stop-color="#ffffff" stop-opacity="0"></stop></linearGradient><linearGradient id="r" x1="617.28" x2="520.36" y1="355.16" y2="362.33" xlink:href="#c"></linearGradient><linearGradient id="s" x1="647.57" x2="550.65" y1="355.16" y2="362.33" xlink:href="#c"></linearGradient><linearGradient id="t" x1="677.86" x2="580.94" y1="355.16" y2="362.33" xlink:href="#c"></linearGradient><linearGradient id="u" x1="708.15" x2="611.23" y1="355.16" y2="362.33" xlink:href="#c"></linearGradient><linearGradient id="v" x1="738.44" x2="641.52" y1="355.16" y2="362.33" xlink:href="#c"></linearGradient><linearGradient id="w" x1="768.72" x2="671.8" y1="355.16" y2="362.33" xlink:href="#c"></linearGradient><linearGradient id="x" x1="799.01" x2="702.09" y1="355.16" y2="362.33" xlink:href="#c"></linearGradient><linearGradient id="y" x1="829.3" x2="732.38" y1="345.59" y2="352.77" xlink:href="#c"></linearGradient><linearGradient id="z" x1="553" x2="582.75" y1="258.95" y2="258.95" xlink:href="#d"></linearGradient><linearGradient id="A" x1="670.22" x2="697.88" y1="370.88" y2="370.88" xlink:href="#d"></linearGradient><linearGradient id="B" x1="681.8" x2="700.41" y1="351.18" y2="351.18" gradientUnits="userSpaceOnUse"><stop class="stopColor68e1fd svgShape stopColor68fdeb" offset="0" stop-color="#9568fd"></stop><stop class="stopColor69b9eb svgShape stopColor69ebdb" offset="1" stop-color="#9069eb"></stop></linearGradient><linearGradient id="C" x1="637.38" x2="556.2" y1="414.68" y2="667.34" xlink:href="#b"></linearGradient><linearGradient id="D" x1="677.53" x2="737.47" y1="399.83" y2="669.93" xlink:href="#b"></linearGradient><linearGradient id="E" x1="576.54" x2="581.09" y1="490.86" y2="685.1" xlink:href="#b"></linearGradient><linearGradient id="F" x1="706.34" x2="710.89" y1="487.82" y2="682.06" xlink:href="#b"></linearGradient></defs><path fill="#875fe4" d="M5.38,489.79c-2.06,1.71-4.21,3.56-5,6.11-1.34,4.17,1.37,8.52,4.36,11.72,15.49,16.59,39.95,20.47,62.52,22.91A1549,1549,0,0,0,374,533.09a17.86,17.86,0,0,0-2.33,2.09c-13.64,14.36-4,38.24,15.8,39.76,126.64,9.75,254.32-2.1,381-14,10.15-1,18.27-19.12,26.73-24.81s13.68-17.55,8.63-26.39c-6.73-11.77-26.57-11.65-31.47-24.29-4.82-12.43,8.95-23.65,13.58-36.14,6.09-16.44-5.3-35.21-20.77-43.43s-33.79-8.53-51.32-8.58a5875.19,5875.19,0,0,0-592,28.15c-23,2.25-38.72,2.55-57.16,14.92C43.73,454.45,24.78,473.65,5.38,489.79Z" class="color68e1fd svgShape color5fe4d4" opacity=".18" transform="translate(0 -9.57)"></path><path fill="#875fe4" d="M621.58,560c4.36-.87,9.14-1.75,13.06.35,2,1.07,3.58,2.83,5.66,3.71,3.85,1.63,8.19-.09,12.23-1.17,15.35-4.11,31.45,1.5,47.32,2.24,15.07.71,30-3,44.59-6.69,3.81-1,8.52-3.1,8.19-7-.48-5.6-9.82-5-12.91-9.67l26.61-14c2.95-1.55,6.14-3.36,7.27-6.49,1.32-3.67-.86-7.88-4.13-10s-7.31-2.59-11.21-2.69c-18.27-.45-35.92,5.91-53.8,9.76a199.28,199.28,0,0,1-62.81,3.37c-4.83-.52-9.72-1.2-14.49-.37-12.11,2.12-22.19,12.55-32.71,18.32-8.51,4.67-17.52,8.32-26.53,11.89-10,3.95-29.22,7.52-35.9,16.29,9.07,4.16,24.12.64,33.9-.13A476.54,476.54,0,0,0,621.58,560Z" class="color68e1fd svgShape color5fe4d4" opacity=".18" transform="translate(0 -9.57)"></path><rect width="409.78" height="268.74" x="260.86" fill="#875fe4" class="color68e1fd svgShape color5fe4d4"></rect><rect width="409.78" height="268.74" x="260.86" fill="url(#a)" style="isolation:isolate"></rect><polygon fill="url(#b)" points="260.86 52.86 567.88 52.86 607.58 249.38 258.49 94.65 260.86 52.86" style="isolation:isolate"></polygon><path fill="#875fe4" d="M574.78,194.7V420.48a18,18,0,0,1-18,18H71.91a18,18,0,0,1-18-18V136.13a18,18,0,0,1,18-18H199.18A20.45,20.45,0,0,1,219.56,137l1.29,17a24.61,24.61,0,0,0,24.53,22.72H556.81a18,18,0,0,1,17.71,14.92A18.23,18.23,0,0,1,574.78,194.7Z" class="color68e1fd svgShape color5fe4d4" transform="translate(0 -9.57)"></path><path fill="url(#e)" d="M574.78,194.7V420.48a18,18,0,0,1-18,18H71.91a18,18,0,0,1-18-18V136.13a18,18,0,0,1,18-18H199.18A20.45,20.45,0,0,1,219.56,137l1.29,17a24.61,24.61,0,0,0,24.53,22.72H556.81a18,18,0,0,1,17.71,14.92A18.23,18.23,0,0,1,574.78,194.7Z" transform="translate(0 -9.57)" style="isolation:isolate"></path><path fill="#875fe4" d="M54,420.48V136.13" class="color68e1fd svgShape color5fe4d4" transform="translate(0 -9.57)"></path><path fill="#6726fe" d="M252.46,176.72h-7.08A24.61,24.61,0,0,1,220.85,154l-1.29-17a20.4,20.4,0,0,0-.7-4h10a20.43,20.43,0,0,1,20.38,18.87l1.3,17A24.39,24.39,0,0,0,252.46,176.72Z" class="color222a72 svgShape color8526fe" transform="translate(0 -9.57)"></path><path fill="#875fe4" d="M574.78,194.7V420.48a18,18,0,0,1-18,18H83.9a18,18,0,0,1-.26-3.05V151a18,18,0,0,1,18-18H218.86a20.4,20.4,0,0,1,.7,4l1.29,17a24.61,24.61,0,0,0,24.53,22.72h7.08a24.63,24.63,0,0,0,22.62,14.92H574.52A18.23,18.23,0,0,1,574.78,194.7Z" class="color68e1fd svgShape color5fe4d4" transform="translate(0 -9.57)"></path><path fill="url(#f)" d="M574.78,187.25V413a18,18,0,0,1-18,18H83.9a18,18,0,0,1-.26-3.05V143.59a18,18,0,0,1,18-18H218.86a20.63,20.63,0,0,1,.7,4l1.29,17a24.61,24.61,0,0,0,24.53,22.73h7.08a24.63,24.63,0,0,0,22.62,14.92H574.52A18,18,0,0,1,574.78,187.25Z" transform="translate(0 -9.57)" style="isolation:isolate"></path><path fill="#875fe4" d="M549.56,68.73v108H245.38A24.61,24.61,0,0,1,220.85,154l-1.29-17a20.43,20.43,0,0,0-20.38-18.87H111.61V68.73Z" class="color68e1fd svgShape color5fe4d4" transform="translate(0 -9.57)"></path><path fill="url(#g)" d="M549.56,68.73v108H245.38A24.61,24.61,0,0,1,220.85,154l-1.29-17a20.43,20.43,0,0,0-20.38-18.87H111.61V68.73Z" transform="translate(0 -9.57)" style="isolation:isolate"></path><path fill="url(#c)" d="M258.74,107.76v69h-6.28v-69a3.13,3.13,0,0,1,3.14-3.14,3.11,3.11,0,0,1,3.14,3.14Z" transform="translate(0 -9.57)"></path><path fill="url(#h)" d="M289,107.76v69h-6.28v-69a3.14,3.14,0,1,1,6.28,0Z" transform="translate(0 -9.57)"></path><path fill="url(#i)" d="M319.32,107.76v69H313v-69a3.14,3.14,0,1,1,6.28,0Z" transform="translate(0 -9.57)"></path><path fill="url(#j)" d="M349.61,107.76v69h-6.28v-69a3.13,3.13,0,0,1,3.13-3.14,3.18,3.18,0,0,1,2.23.91A3.14,3.14,0,0,1,349.61,107.76Z" transform="translate(0 -9.57)"></path><path fill="url(#k)" d="M379.9,107.76v69h-6.28v-69a3.14,3.14,0,0,1,6.28,0Z" transform="translate(0 -9.57)"></path><path fill="url(#l)" d="M410.19,107.76v69h-6.28v-69a3.13,3.13,0,0,1,3.13-3.14,3.18,3.18,0,0,1,2.23.91A3.14,3.14,0,0,1,410.19,107.76Z" transform="translate(0 -9.57)"></path><path fill="url(#m)" d="M440.48,107.76v69H434.2v-69a3.14,3.14,0,0,1,6.28,0Z" transform="translate(0 -9.57)"></path><path fill="url(#n)" d="M470.77,107.76v69h-6.28v-69a3.14,3.14,0,0,1,6.28,0Z" transform="translate(0 -9.57)"></path><path fill="#875fe4" d="M613.05,244.45c-3.48,1.92-7.08,3.79-11,4.39-10,1.53-19.59-5.52-29.76-5.58a22.51,22.51,0,0,0-20.24,13.17c9.27,1.69,18.78,1.38,28.2,1.07l52.16-1.75c3.81-.13,8.09-.47,10.55-3.37,1.56-1.83,2-4.31,3-6.5,1.68-3.69,4.79-6.51,7-9.92,2.45-3.79,5-10.8,3.41-15.37-2.25-6.3-8.32,1.19-11.72,3.68A290.81,290.81,0,0,1,613.05,244.45Z" class="color68e1fd svgShape color5fe4d4" transform="translate(0 -9.57)"></path><path fill="url(#o)" d="M613.05,244.45c-3.48,1.92-7.08,3.79-11,4.39-10,1.53-19.59-5.52-29.76-5.58a22.51,22.51,0,0,0-20.24,13.17c9.27,1.69,18.78,1.38,28.2,1.07l52.16-1.75c3.81-.13,8.09-.47,10.55-3.37,1.56-1.83,2-4.31,3-6.5,1.68-3.69,4.79-6.51,7-9.92,2.45-3.79,5-10.8,3.41-15.37-2.25-6.3-8.32,1.19-11.72,3.68A290.81,290.81,0,0,1,613.05,244.45Z" transform="translate(0 -9.57)" style="isolation:isolate"></path><path fill="url(#d)" d="M661.08,127.68c0,2.86,2,5.34,2.55,8.14.77,3.69-.91,7.83.9,11.13,2,3.68,7,4.07,10.89,5.72a15.6,15.6,0,0,1,9.1,15.75,3.33,3.33,0,0,0,.22,2.3,3,3,0,0,0,2.25.93l9.74,1a5.83,5.83,0,0,0,3.37-.31,5.19,5.19,0,0,0,2.06-2.72c2.81-6.74,2.3-14.37,4-21.48,2.18-9.42,8.09-17.75,9.61-27.3a30.94,30.94,0,0,0-2.5-17.79c-1.6-3.44-4-6.7-7.45-8.27a20.91,20.91,0,0,0-7.7-1.41c-9.89-.48-23.49.68-26.22,12.45-.91,4-.28,7.12-2.89,10.64S661.11,122.67,661.08,127.68Z" transform="translate(0 -9.57)"></path><path fill="#443d56" d="M667.35,87.79c-.83,6.15,4.18,11.45,9.12,15.19s21.3,11.49,22.35,16.29.72,9.78.38,14.68c.72,3,7.34-5,8.26-5.32a2.45,2.45,0,0,1,2.87,1.86,6,6,0,0,1-.54,3.74c-1.47,3.61-7.53,12.31-5.74,18.89,5.41,1,7.05-12.6,12-14.9,7-3.23,13-6.42,14.95-13.85,2.35-8.81,4.36-18.64.08-26.7a10.13,10.13,0,0,0-2.68-3.37c-1-.75-2.15-1.22-3.19-1.88-2.83-1.77-4.61-4.76-6.71-7.35a33.83,33.83,0,0,0-19.89-11.9c-6.6-1.24-14.7-.66-20.64,2.75C673.74,78.38,668,82.64,667.35,87.79Z" class="color3f3d56 svgShape color4e3d56" transform="translate(0 -9.57)"></path><path fill="#875fe4" d="M717.69,279.33a152.53,152.53,0,0,0,6.4-14.88c7.06-20.22,5.32-42.32,3.17-63.63a45.9,45.9,0,0,0-1.65-9.55,43.22,43.22,0,0,0-5.4-10.26q-4.68-7.12-9.8-14c-.87-1.16-1.86-2.39-3.27-2.73a6.45,6.45,0,0,0-3,.27l-8.22,2.09c-7.34,1.87-15.3,4.15-19.66,10.35-13.39,19-25.16,40.76-32.49,62.84q-10,30.19-20,60.39c-2.62,7.88-5.09,17.05-.59,24,5.31,8.2,17,8.56,26.72,8l17.3-1c7.28-.41,15.32-1.15,20.36-6.42a29.37,29.37,0,0,0,3.94-5.74C700.4,303.58,710,295.56,717.69,279.33Z" class="color68e1fd svgShape color5fe4d4" transform="translate(0 -9.57)"></path><path fill="url(#p)" d="M717.69,279.33a152.53,152.53,0,0,0,6.4-14.88c7.06-20.22,5.32-42.32,3.17-63.63a45.9,45.9,0,0,0-1.65-9.55,43.22,43.22,0,0,0-5.4-10.26q-4.68-7.12-9.8-14c-.87-1.16-1.86-2.39-3.27-2.73a6.45,6.45,0,0,0-3,.27l-8.22,2.09c-7.34,1.87-15.3,4.15-19.66,10.35-13.39,19-25.16,40.76-32.49,62.84q-10,30.19-20,60.39c-2.62,7.88-5.09,17.05-.59,24,5.31,8.2,17,8.56,26.72,8l17.3-1c7.28-.41,15.32-1.15,20.36-6.42a29.37,29.37,0,0,0,3.94-5.74C700.4,303.58,710,295.56,717.69,279.33Z" transform="translate(0 -9.57)" style="isolation:isolate"></path><rect width="334.21" height="207.42" x="489.79" y="244.8" fill="#875fe4" class="color68e1fd svgShape color5fe4d4"></rect><rect width="334.21" height="207.42" x="489.79" y="244.8" fill="url(#q)" style="isolation:isolate"></rect><path fill="url(#r)" d="M555.06,431.87h0a3.15,3.15,0,0,1-3.14-3.14V290.8a3.14,3.14,0,0,1,3.14-3.14h0a3.13,3.13,0,0,1,3.14,3.14V428.73A3.14,3.14,0,0,1,555.06,431.87Z" transform="translate(0 -9.57)"></path><path fill="url(#s)" d="M585.35,431.87h0a3.15,3.15,0,0,1-3.14-3.14V290.8a3.14,3.14,0,0,1,3.14-3.14h0a3.13,3.13,0,0,1,3.14,3.14V428.73A3.14,3.14,0,0,1,585.35,431.87Z" transform="translate(0 -9.57)"></path><path fill="url(#t)" d="M615.64,431.87h0a3.15,3.15,0,0,1-3.14-3.14V290.8a3.14,3.14,0,0,1,3.14-3.14h0a3.13,3.13,0,0,1,3.14,3.14V428.73A3.14,3.14,0,0,1,615.64,431.87Z" transform="translate(0 -9.57)"></path><path fill="url(#u)" d="M645.93,431.87h0a3.15,3.15,0,0,1-3.14-3.14V290.8a3.14,3.14,0,0,1,3.14-3.14h0a3.13,3.13,0,0,1,3.14,3.14V428.73A3.14,3.14,0,0,1,645.93,431.87Z" transform="translate(0 -9.57)"></path><path fill="url(#v)" d="M676.22,431.87h0a3.14,3.14,0,0,1-3.14-3.14V290.8a3.13,3.13,0,0,1,3.14-3.14h0a3.14,3.14,0,0,1,3.14,3.14V428.73A3.15,3.15,0,0,1,676.22,431.87Z" transform="translate(0 -9.57)"></path><path fill="url(#w)" d="M706.51,431.87h0a3.14,3.14,0,0,1-3.14-3.14V290.8a3.13,3.13,0,0,1,3.14-3.14h0a3.14,3.14,0,0,1,3.14,3.14V428.73A3.15,3.15,0,0,1,706.51,431.87Z" transform="translate(0 -9.57)"></path><path fill="url(#x)" d="M736.8,431.87h0a3.14,3.14,0,0,1-3.14-3.14V290.8a3.13,3.13,0,0,1,3.14-3.14h0a3.14,3.14,0,0,1,3.14,3.14V428.73A3.15,3.15,0,0,1,736.8,431.87Z" transform="translate(0 -9.57)"></path><rect width="6.28" height="144.21" x="763.95" y="278.09" fill="url(#y)" rx="3.14"></rect><path fill="#875fe4" d="M686,239.06q-1.63,41-6.27,81.77c-.61,5.42-1.25,11,.22,16.25s5.64,10.14,11.06,10.72c4.77.51,9.38-2.44,12.16-6.35s4-8.67,5.15-13.33a332.91,332.91,0,0,0,7.15-112.28c-.63-5.94-1.47-12-4.18-17.32s-7.67-9.86-13.61-10.53c-9.19-1-14.71,6.75-14,14.8C684.85,215.12,686.5,226.54,686,239.06Z" class="color68e1fd svgShape color5fe4d4" transform="translate(0 -9.57)"></path><path fill="url(#z)" d="M556.62,251.7a6.29,6.29,0,0,0-2.47,2.12,7.25,7.25,0,0,0-.75,2.83c-.45,3.76-.87,7.77.8,11.17a1.26,1.26,0,0,0,.47.59,1,1,0,0,0,.66,0,2.8,2.8,0,0,0,1.79-1.56,8,8,0,0,0,.61-2.37c.52-3.29,1-6.59,1.55-9.89a18.63,18.63,0,0,0-.65,6.88,10.53,10.53,0,0,0,2.81,6.22,2.1,2.1,0,0,0,1,.65c1,.19,1.72-.84,2.12-1.75a24.47,24.47,0,0,0,2.06-11.23,18.73,18.73,0,0,0,2,11,2.69,2.69,0,0,0,.65.88,2.87,2.87,0,0,0,1.81.44,2.59,2.59,0,0,0,1.74-.38,2.47,2.47,0,0,0,.7-1.2,25.89,25.89,0,0,0,1.23-10.23,45.37,45.37,0,0,0,2.26,11,3.38,3.38,0,0,0,1.06,1.78,2.42,2.42,0,0,0,3.16-.76,6.39,6.39,0,0,0,1-3.41c.15-1.58-.51-3.22-.06-4.74C587,243.31,559.79,249.88,556.62,251.7Z" transform="translate(0 -9.57)"></path><path fill="url(#A)" d="M673.44,361.42c-1.65.75-3.61,2.11-3.15,3.86.36,1.36,2.06,1.91,3.45,1.7s2.66-.92,4-1.16a1.78,1.78,0,0,1,1.56.28,1.81,1.81,0,0,1,.43.94c.46,2.43-.84,4.83-2.34,6.8s-3.26,3.83-4,6.19c1.78.9,3.93-.19,5.36-1.58s2.59-3.14,4.38-4l-4.6,8.2c-.42.74-.82,1.73-.27,2.38.74.87,2.13.08,2.93-.73a53,53,0,0,0,6.38-7.86,26.13,26.13,0,0,0-2.59,9c1.39.15,2.38-1.24,3.06-2.46l4-7.27a14.94,14.94,0,0,1-1.61,6.46c2.09-.45,3.09-2.77,3.77-4.79,1.88-5.56,3.78-11.28,3.53-17.15-.05-1.28-.3-2.73-1.38-3.43a4.23,4.23,0,0,0-2.28-.48C686.25,356.21,680.55,358.18,673.44,361.42Z" transform="translate(0 -9.57)"></path><path fill="url(#B)" d="M682.82,348.66a4.64,4.64,0,0,1,1.12-2.36,5,5,0,0,1,3-1l7.66-.88c1.91-.22,4.26-.24,5.3,1.39a4.87,4.87,0,0,1,.46,3,33.67,33.67,0,0,1-1.43,7.64c-.21.65-12.91,1.94-14.06,1.65C680.5,356.93,681.77,352.93,682.82,348.66Z" transform="translate(0 -9.57)"></path><polygon fill="#875fe4" points="604.47 452.22 581.13 530.78 602.23 530.78 646.17 452.22 604.47 452.22" class="color68e1fd svgShape color5fe4d4"></polygon><polygon fill="#875fe4" points="707.05 452.22 730.4 530.78 709.3 530.78 665.35 452.22 707.05 452.22" class="color68e1fd svgShape color5fe4d4"></polygon><path fill="#875fe4" d="M601.08 556.92c-2 .51-4.12 1-6.09.41s-3.61-2.79-2.86-4.72c-4.76 1.25-9.17 3.64-13.93 4.89-7.8 2.06-16 1-24-.12a20.54 20.54 0 0110.07-13c5-2.68 10.81-3.16 16.45-3.58l10.83-.81c2.17-.16 6.86-1.48 8.75.06S602.34 556.6 601.08 556.92zM731 556.92c-2 .51-4.13 1-6.1.41s-3.61-2.79-2.85-4.72c-4.77 1.25-9.18 3.64-13.94 4.89-7.8 2.06-16 1-24-.12a20.52 20.52 0 0110.08-13c5-2.68 10.8-3.16 16.44-3.58L721.4 540c2.18-.16 6.87-1.48 8.75.06S732.21 556.6 731 556.92z" class="color68e1fd svgShape color5fe4d4" transform="translate(0 -9.57)"></path><polygon fill="url(#C)" points="604.47 452.22 581.13 530.78 602.23 530.78 646.17 452.22 604.47 452.22" style="isolation:isolate"></polygon><polygon fill="url(#D)" points="707.05 452.22 730.4 530.78 709.3 530.78 665.35 452.22 707.05 452.22" style="isolation:isolate"></polygon><path fill="url(#E)" d="M601.08,556.92c-2,.51-4.12,1-6.09.41s-3.61-2.79-2.86-4.72c-4.76,1.25-9.17,3.64-13.93,4.89-7.8,2.06-16,1-24-.12a20.54,20.54,0,0,1,10.07-13c5-2.68,10.81-3.16,16.45-3.58l10.83-.81c2.17-.16,6.86-1.48,8.75.06S602.34,556.6,601.08,556.92Z" transform="translate(0 -9.57)" style="isolation:isolate"></path><path fill="url(#F)" d="M731,556.92c-2,.51-4.13,1-6.1.41s-3.61-2.79-2.85-4.72c-4.77,1.25-9.18,3.64-13.94,4.89-7.8,2.06-16,1-24-.12a20.52,20.52,0,0,1,10.08-13c5-2.68,10.8-3.16,16.44-3.58L721.4,540c2.18-.16,6.87-1.48,8.75.06S732.21,556.6,731,556.92Z" transform="translate(0 -9.57)" style="isolation:isolate"></path></svg></svg></g></svg>