<?xml version="1.0" encoding="UTF-8" standalone="no"?>
<svg
   viewBox="0 0 134.568 36"
   width="134.568"
   height="36"
   version="1.1"
   id="svg1336"
   sodipodi:docname="logo.svg"
   inkscape:version="1.1 (ce6663b3b7, 2021-05-25)"
   xmlns:inkscape="http://www.inkscape.org/namespaces/inkscape"
   xmlns:sodipodi="http://sodipodi.sourceforge.net/DTD/sodipodi-0.dtd"
   xmlns="http://www.w3.org/2000/svg"
   xmlns:svg="http://www.w3.org/2000/svg">
  <defs
     id="defs1340" />
  <sodipodi:namedview
     id="namedview1338"
     pagecolor="#505050"
     bordercolor="#ffffff"
     borderopacity="1"
     inkscape:pageshadow="0"
     inkscape:pageopacity="0"
     inkscape:pagecheckerboard="1"
     showgrid="false"
     inkscape:zoom="9.7125622"
     inkscape:cx="44.37552"
     inkscape:cy="17.966423"
     inkscape:window-width="1920"
     inkscape:window-height="1002"
     inkscape:window-x="0"
     inkscape:window-y="0"
     inkscape:window-maximized="1"
     inkscape:current-layer="svg1336" />
  <g
     fill="#0e05b6"
     color="#0e05b6"
     transform="translate(0 4) scale(0.6666667)"
     id="g1332"
     style="fill:#6964ff;fill-opacity:1">
    <svg
       width="42.0"
       height="42.0"
       x="0.0"
       y="0.0"
       viewBox="0 0 42 42"
       version="1.1"
       id="svg1330"
       style="fill:#6964ff;fill-opacity:1">
      <path
         fill="currentColor"
         fill-rule="nonzero"
         d="M21 41.41L41.41.59H.59L21 41.41zm0-7.61l-11.5-23h15.4l-1.7 3.4H15l6 12 9.4-18.8H7.8L6.1 4h29.8L21 33.8z"
         id="path1328"
         style="fill:#6964ff;fill-opacity:1" />
    </svg>
  </g>
  <path
     fill="#ffffff"
     fill-rule="nonzero"
     d="M4.01 20.74L0 20.74L1.99 0.12L8.98 0.12L10.94 20.74L7.03 20.74L6.74 17.40L4.25 17.40L4.01 20.74ZM5.33 3.62L4.56 14.11L6.43 14.11L5.52 3.62L5.33 3.62ZM12.12 20.74L12.12 3.17L16.32 3.17L16.32 5.40Q16.58 4.32 17.23 3.65Q17.88 2.98 18.96 2.98L18.96 2.98Q20.74 2.98 21.59 4.07Q22.44 5.16 22.44 7.18L22.44 7.18L22.44 20.74L18.31 20.74L18.31 7.61Q18.31 7.03 18.08 6.62Q17.86 6.22 17.38 6.22L17.38 6.22Q16.73 6.22 16.52 6.80Q16.32 7.39 16.32 8.38L16.32 8.38L16.32 20.74L12.12 20.74ZM29.38 20.93Q26.50 20.93 25.22 19.46Q23.95 18 23.95 14.98L23.95 14.98L23.95 9.55Q23.95 7.27 24.44 5.84Q24.94 4.42 26.10 3.70Q27.26 2.98 29.33 2.98L29.33 2.98Q31.58 2.98 33 4.15Q34.42 5.33 34.42 7.44L34.42 7.44L34.42 10.13L30.14 10.13L30.14 7.66Q30.14 6.96 29.95 6.59Q29.76 6.22 29.21 6.22L29.21 6.22Q28.18 6.22 28.18 7.68L28.18 7.68L28.18 16.20Q28.18 16.80 28.43 17.22Q28.68 17.64 29.18 17.64L29.18 17.64Q29.69 17.64 29.94 17.23Q30.19 16.82 30.17 16.18L30.17 16.18L30.14 13.22L34.42 13.22L34.42 16.30Q34.42 18.46 33.01 19.69Q31.61 20.93 29.38 20.93L29.38 20.93ZM40.99 20.93Q35.74 20.93 35.74 15.48L35.74 15.48L35.74 8.42Q35.74 5.93 37.14 4.45Q38.54 2.98 40.99 2.98L40.99 2.98Q43.44 2.98 44.84 4.45Q46.25 5.93 46.25 8.42L46.25 8.42L46.25 15.48Q46.25 20.93 40.99 20.93L40.99 20.93ZM40.99 17.69Q41.50 17.69 41.74 17.33Q41.98 16.97 41.98 16.34L41.98 16.34L41.98 7.75Q41.98 6.22 40.99 6.22L40.99 6.22Q40.01 6.22 40.01 7.75L40.01 7.75L40.01 16.34Q40.01 16.97 40.25 17.33Q40.49 17.69 40.99 17.69L40.99 17.69ZM56.06 20.74L47.30 20.74L47.30 18.17L51.67 6.48L47.50 6.48L47.50 3.17L56.02 3.17L56.02 6.02L51.89 17.59L56.06 17.59L56.06 20.74ZM62.18 20.93Q56.93 20.93 56.93 15.48L56.93 15.48L56.93 8.42Q56.93 5.93 58.33 4.45Q59.74 2.98 62.18 2.98L62.18 2.98Q64.63 2.98 66.04 4.45Q67.44 5.93 67.44 8.42L67.44 8.42L67.44 15.48Q67.44 20.93 62.18 20.93L62.18 20.93ZM62.18 17.69Q62.69 17.69 62.93 17.33Q63.17 16.97 63.17 16.34L63.17 16.34L63.17 7.75Q63.17 6.22 62.18 6.22L62.18 6.22Q61.20 6.22 61.20 7.75L61.20 7.75L61.20 16.34Q61.20 16.97 61.44 17.33Q61.68 17.69 62.18 17.69L62.18 17.69ZM74.28 20.93Q71.40 20.93 70.13 19.46Q68.86 18 68.86 14.98L68.86 14.98L68.86 9.55Q68.86 7.27 69.35 5.84Q69.84 4.42 71.00 3.70Q72.17 2.98 74.23 2.98L74.23 2.98Q76.49 2.98 77.90 4.15Q79.32 5.33 79.32 7.44L79.32 7.44L79.32 10.13L75.05 10.13L75.05 7.66Q75.05 6.96 74.86 6.59Q74.66 6.22 74.11 6.22L74.11 6.22Q73.08 6.22 73.08 7.68L73.08 7.68L73.08 16.20Q73.08 16.80 73.33 17.22Q73.58 17.64 74.09 17.64L74.09 17.64Q74.59 17.64 74.84 17.23Q75.10 16.82 75.07 16.18L75.07 16.18L75.05 13.22L79.32 13.22L79.32 16.30Q79.32 18.46 77.92 19.69Q76.51 20.93 74.28 20.93L74.28 20.93ZM84.94 20.74L80.78 20.74L80.78 0L84.94 0L84.94 9.22L86.95 3.17L91.30 3.17L88.66 10.80L92.02 20.74L87.55 20.74L84.94 12.46L84.94 20.74ZM96.19 20.93Q94.54 20.93 93.91 20.23Q93.29 19.54 93.29 18L93.29 18L93.29 7.03L92.11 7.03L92.11 3.84L93.29 3.84L93.29 0.12L97.37 0.12L97.37 3.84L98.57 3.84L98.57 7.03L97.37 7.03L97.37 16.90Q97.37 17.35 97.44 17.57Q97.51 17.78 97.82 17.78L97.82 17.78Q98.06 17.78 98.28 17.76Q98.50 17.74 98.57 17.74L98.57 17.74L98.57 20.62Q98.21 20.71 97.52 20.82Q96.84 20.93 96.19 20.93L96.19 20.93Z"
     transform="translate(36, 7.632)"
     id="path1334" />
</svg>
